<svg xmlns="http://www.w3.org/2000/svg" viewBox="-0.166 -0.166 915.332 915.332"><defs><clipPath id="a"><path d="M0 0h915v915H0z"/></clipPath></defs><g clip-path="url(#a)"><path data-name="Rounded Rectangle 2 copy" d="M482.249 10.609l422.142 422.142a35 35 0 010 49.5l-422.142 422.14a35 35 0 01-49.5 0L10.609 482.249a35 35 0 010-49.5l422.142-422.14a35 35 0 0149.498 0zm242.537 335.875l99 99a20 20 0 010 28.284L473.763 823.781a20 20 0 01-28.284 0l-98.995-98.995a20 20 0 010-28.284L696.5 346.484a20 20 0 0128.286 0zM218.5 342.242l181.017 181.019a20 20 0 010 28.284l-98.995 99a20 20 0 01-28.284 0L91.219 469.521a20 20 0 010-28.284l99-98.995a20 20 0 0128.281 0z" fill="#fff" fill-rule="evenodd"/></g></svg>